<svg xmlns="http://www.w3.org/2000/svg" viewBox="0 0 64 64" aria-labelledby="title"
aria-describedby="desc" role="img" xmlns:xlink="http://www.w3.org/1999/xlink">
  <title>Lemon</title>
  <desc>A solid styled icon from Orion Icon Library.</desc>
  <path data-name="layer2"
  d="M42.6 23.4c.1-1.6 1.1-4.4 0-5.5l-.4-.2a13.6 13.6 0 0 0-7.7-12.5 2 2 0 0 0-1.8 3.6 9.5 9.5 0 0 1 5.5 9h-1.1c-1.6.1-2.3-1.8-8.8-2.8s-13.7 3.5-18.6 8.4-8 9.4-8.2 16.4S4 46.1 4.3 48s-2.2 6 0 8.2 6.3-.3 8.2 0 2.5 3 8.2 2.7 10.4-2.2 16.4-8.2 9.2-11.9 8.3-18.5-2.9-7.3-2.8-8.8z"
  fill="#2b2b2b"></path>
  <path data-name="layer1" d="M43.6 16.7c6.7 9.7 16.4 4.2 18.9.1-5-9.2-15.3-7.5-18.9-.1z"
  fill="#2b2b2b"></path>
</svg>